<svg xmlns="http://www.w3.org/2000/svg" viewBox="0 0 1358.4 264.19"><defs><style>.cls-1{fill:#ffe700;}.cls-2{fill:#ffd00a;}.cls-3{fill:#ffad02;}.cls-4{fill:#003349;}</style></defs><title>Vacasa_Identity</title><g id="Layer_1" data-name="Layer 1"><path class="cls-1" d="M171.44,120.39l-6.18-3.56-18.52-10.7a8.44,8.44,0,0,0-8.42,0l-18.53,10.7-6.12,3.53-18.53,10.7a8.42,8.42,0,0,0-4.21,7.29v80.37h22.74V151.47a8.42,8.42,0,0,1,4.21-7.29l20.44-11.8a8.44,8.44,0,0,1,8.42,0l20.49,11.83a8.42,8.42,0,0,1,4.21,7.29v67.22h22.73V138.38a8.4,8.4,0,0,0-4.21-7.29Z"/><path class="cls-2" d="M216.91,94.14,165.26,64.32,146.74,53.63a8.44,8.44,0,0,0-8.42,0L119.79,64.32,68.2,94.11l-18.52,10.7a8.4,8.4,0,0,0-4.21,7.29V218.72H68.2v-93.5a8.43,8.43,0,0,1,4.21-7.29l65.91-38.05a8.44,8.44,0,0,1,8.42,0l66,38.08a8.43,8.43,0,0,1,4.21,7.29v93.47h22.73V112.13a8.4,8.4,0,0,0-4.21-7.29Z"/><path class="cls-3" d="M280.9,78.59,146.74,1.13a8.39,8.39,0,0,0-8.42,0L4.21,78.56A8.4,8.4,0,0,0,0,85.85V255.77a8.42,8.42,0,0,0,8.42,8.42H113.67V241.46H22.73V99a8.43,8.43,0,0,1,4.21-7.29l111.38-64.3a8.39,8.39,0,0,1,8.42,0L258.17,91.71a8.42,8.42,0,0,1,4.2,7.29V241.46H171.44v22.73H276.69a8.42,8.42,0,0,0,8.42-8.42V85.88A8.42,8.42,0,0,0,280.9,78.59Z"/><path class="cls-4" d="M591.44,81.71h-.87c-25.16,0-46.3,7.39-59.52,20.81a52.65,52.65,0,0,0-14.37,27.15,1.94,1.94,0,0,0,1.9,2.29h24.2c5.05-17.6,21.82-27.32,47.44-27.32h.88c28.43,0,45.4,10.07,45.4,26.87v22.54a1.08,1.08,0,0,1-1,1.09l-58.56,2.55c-47.51,2.5-70.6,20-70.6,53.59,0,39,34.82,52.91,67.41,52.91,25.1,0,43.45-6.85,59.54-22.27l3.58-4v22.76h24.32V135C661.16,101.15,635.75,81.75,591.44,81.71ZM636.5,191.28c-.49,22.9-17,49.63-61.75,49.63-27.2,0-43.44-11.07-43.44-29.63,0-20.23,15.63-30.64,49.15-32.73l56-1.74Z"/><path class="cls-4" d="M768.6,81.71c-49.94,0-85,41.09-85,91.59,0,50.12,33.5,90.89,85,90.89,27.88,0,50.37-11.6,66.24-32.65A84.1,84.1,0,0,0,844,216a2,2,0,0,0-1.82-2.78H817.06a64.61,64.61,0,0,1-11.63,13.83c-10.6,9.28-22.29,13.86-36.83,13.86-32.21,0-59.62-30.17-59.62-67.64C709,135.44,736.39,105,768.6,105c15.44,0,27.84,5.31,38.89,16a69.9,69.9,0,0,1,9.08,11h25.27a2,2,0,0,0,1.8-2.84A86.14,86.14,0,0,0,830.23,109C814.47,91.38,793.61,81.71,768.6,81.71Z"/><path class="cls-4" d="M946.07,81.71h-.87c-25.16,0-46.3,7.39-59.52,20.81a52.69,52.69,0,0,0-14.34,27,2.08,2.08,0,0,0,2,2.45h24c5.05-17.6,21.83-27.32,47.45-27.32h.87c28.42,0,45.4,10.07,45.4,26.87v22.54a1.08,1.08,0,0,1-1,1.09l-58.56,2.55c-47.51,2.5-70.61,20-70.61,53.59,0,39,34.83,52.91,67.42,52.91,25.1,0,43.45-6.85,59.54-22.27l3.58-4v22.77h24.32V135C1015.79,101.15,990.38,81.75,946.07,81.71Zm45.06,109.57c-.5,22.9-17,49.63-61.75,49.63-27.2,0-43.44-11.07-43.44-29.63,0-20.23,15.63-30.64,49.15-32.73l56-1.74Z"/><path class="cls-4" d="M1110.4,81.7c-46.47,0-67.63,26.3-67.63,50.74,0,11,2.64,19.56,8.07,26,12.25,14.57,29.46,18.13,61.1,20.2,31.21,2.05,46.8,12.27,47.63,31.24a25.52,25.52,0,0,1-7,19.26c-7.35,7.68-20.21,11.74-37.18,11.74h-1.61c-19.32-.28-35.57-7.24-44.57-19.1a34.89,34.89,0,0,1-4.78-8.54h-23.7a2,2,0,0,0-2,2.57c8.43,29.82,36.25,47.83,75.09,48.36h1.81c24.18,0,44-6.65,55.84-18.71,8.93-9.11,13.31-21.09,13-35.62-.65-32.55-22.89-50.2-68-54-29.11-2.43-48.49-7.52-48.49-24.48,0-15.29,18.2-26.82,42.33-26.82,19.18,0,33.7,7.09,40.88,20a38,38,0,0,1,3,7.4H1178a1.93,1.93,0,0,0,1.87-2.29,62.49,62.49,0,0,0-1.84-7.24C1169.61,96.54,1145,81.7,1110.4,81.7Z"/><path class="cls-4" d="M1288.68,81.71h-.87c-25.16,0-46.3,7.39-59.52,20.81a52.75,52.75,0,0,0-14.38,27.2,1.9,1.9,0,0,0,1.86,2.24H1240c5-17.6,21.83-27.32,47.45-27.32h.87c28.43,0,45.4,10.07,45.4,26.87v22.54a1.08,1.08,0,0,1-1,1.09l-58.55,2.55c-47.51,2.5-70.61,20-70.61,53.59,0,39,34.82,52.91,67.41,52.91,25.1,0,43.45-6.85,59.54-22.27l3.58-4v22.77h24.32V135C1358.4,101.15,1333,81.75,1288.68,81.71Zm45.06,109.57c-.49,22.9-17,49.63-61.74,49.63-27.21,0-43.44-11.07-43.44-29.63,0-20.23,15.62-30.64,49.14-32.73l56-1.74Z"/><path class="cls-4" d="M480.86,85.84,426.91,232.37,372.07,85.84H347.9a2,2,0,0,0-1.85,2.63L411.8,260.72h29.86L506.88,88.47A2,2,0,0,0,505,85.84Z"/></g></svg>